<svg width="50" height="50" viewBox="0 0 50 50" fill="none" xmlns="http://www.w3.org/2000/svg">
<g clip-path="url(#clip0_36_49)">
<path d="M25.5812 3.47803C25.2082 3.32851 24.7918 3.32851 24.4188 3.47803L5.76875 10.9374L25 18.628L44.2313 10.9374L25.5812 3.47803ZM46.875 13.2468L26.5625 21.3718V46.128L46.875 38.003V13.2499V13.2468ZM23.4375 46.1312V21.3687L3.125 13.2468V38.0062L23.4375 46.1312ZM23.2594 0.574904C24.3768 0.128027 25.6232 0.128027 26.7406 0.574904L49.0187 9.4874C49.3084 9.60349 49.5567 9.80363 49.7315 10.0621C49.9064 10.3205 49.9999 10.6254 50 10.9374V38.0062C49.9996 38.6306 49.8121 39.2406 49.4618 39.7575C49.1114 40.2744 48.6143 40.6745 48.0344 40.9062L25.5812 49.8874C25.2082 50.0369 24.7918 50.0369 24.4188 49.8874L1.96875 40.9062C1.38828 40.675 0.890445 40.2751 0.539506 39.7582C0.188568 39.2412 0.000644779 38.631 0 38.0062L0 10.9374C7.26248e-05 10.6254 0.0935742 10.3205 0.268459 10.0621C0.443345 9.80363 0.691602 9.60349 0.98125 9.4874L23.2594 0.574904Z" fill="black"/>
</g>
<defs>
<clipPath id="clip0_36_49">
<rect width="50" height="50" fill="white"/>
</clipPath>
</defs>
</svg>
