<svg width="25" height="25" viewBox="0 0 25 25" fill="none" xmlns="http://www.w3.org/2000/svg">
<path fill-rule="evenodd" clip-rule="evenodd" d="M2.45527 7.13474C2.49099 7.10149 2.53343 7.07511 2.58015 7.05711C2.62687 7.03911 2.67696 7.02985 2.72754 7.02985C2.77813 7.02985 2.82821 7.03911 2.87494 7.05711C2.92166 7.07511 2.9641 7.10149 2.99982 7.13474L7.34239 11.1673L11.685 7.13474C11.7207 7.10155 11.7632 7.07521 11.8099 7.05725C11.8566 7.03928 11.9067 7.03003 11.9572 7.03003C12.0078 7.03003 12.0579 7.03928 12.1046 7.05725C12.1513 7.07521 12.1937 7.10155 12.2295 7.13474C12.2653 7.16794 12.2936 7.20735 12.313 7.25073C12.3323 7.2941 12.3423 7.34059 12.3423 7.38754C12.3423 7.43448 12.3323 7.48097 12.313 7.52435C12.2936 7.56772 12.2653 7.60713 12.2295 7.64033L7.61466 11.9249C7.57894 11.9582 7.5365 11.9846 7.48978 12.0026C7.44306 12.0206 7.39297 12.0298 7.34239 12.0298C7.2918 12.0298 7.24171 12.0206 7.19499 12.0026C7.14827 11.9846 7.10583 11.9582 7.07011 11.9249L2.45527 7.64033C2.41945 7.60716 2.39104 7.56776 2.37165 7.52438C2.35226 7.481 2.34229 7.4345 2.34229 7.38754C2.34229 7.34057 2.35226 7.29407 2.37165 7.25069C2.39104 7.20731 2.41945 7.16791 2.45527 7.13474Z" fill="white"/>
</svg>
