<svg width="60" height="60" viewBox="0 0 60 60" fill="none" xmlns="http://www.w3.org/2000/svg">
<g clip-path="url(#clip0_77_6)">
<path d="M50.7937 10.9013C46.9031 9.11578 42.7977 7.84144 38.5799 7.11003C38.5417 7.10359 38.5024 7.10915 38.4675 7.12594C38.4326 7.14272 38.4037 7.16992 38.3849 7.20378C37.8562 8.14128 37.2712 9.36753 36.8624 10.3275C32.3159 9.63756 27.6914 9.63756 23.1449 10.3275C22.6889 9.2581 22.1731 8.2152 21.5999 7.20378C21.5807 7.17029 21.5517 7.14341 21.5169 7.12668C21.4821 7.10994 21.4431 7.10414 21.4049 7.11003C17.1862 7.83753 13.0799 9.11253 9.19115 10.9013C9.15787 10.914 9.13004 10.9378 9.1124 10.9688C1.3349 22.59 -0.798849 33.9263 0.247401 45.12C0.251151 45.1725 0.284901 45.225 0.326151 45.2588C4.85512 48.6136 9.92087 51.175 15.3074 52.8338C15.3454 52.8458 15.3863 52.8453 15.4241 52.8325C15.4618 52.8197 15.4945 52.7952 15.5174 52.7625C16.6724 51.1875 17.6999 49.5263 18.5849 47.7788C18.6033 47.7428 18.6097 47.7018 18.6029 47.6619C18.5961 47.622 18.5767 47.5854 18.5474 47.5575C18.528 47.5392 18.505 47.5252 18.4799 47.5163C16.8643 46.8954 15.2995 46.1493 13.7999 45.285C13.758 45.2613 13.7269 45.2224 13.7129 45.1763C13.6989 45.1302 13.7032 45.0805 13.7249 45.0375C13.7377 45.0096 13.757 44.9852 13.7812 44.9663C14.0962 44.73 14.4112 44.4825 14.7112 44.235C14.7377 44.2137 14.7694 44.2 14.8031 44.1954C14.8368 44.1908 14.8711 44.1954 14.9024 44.2088C24.7237 48.6938 35.3549 48.6938 45.0562 44.2088C45.0886 44.1947 45.1242 44.1898 45.1592 44.1944C45.1942 44.199 45.2273 44.2131 45.2549 44.235C45.5549 44.4825 45.8699 44.73 46.1849 44.9663C46.2104 44.9849 46.2309 45.0096 46.2446 45.0381C46.2582 45.0667 46.2646 45.0981 46.2631 45.1297C46.2616 45.1613 46.2523 45.192 46.2361 45.2191C46.2198 45.2462 46.1971 45.2689 46.1699 45.285C44.6737 46.1573 43.107 46.9024 41.4861 47.5125C41.4603 47.5219 41.4368 47.5368 41.4174 47.5563C41.3979 47.5757 41.383 47.5992 41.3737 47.625C41.365 47.6501 41.3615 47.6766 41.3634 47.7031C41.3654 47.7295 41.3727 47.7553 41.3849 47.7788C42.2849 49.5225 43.3161 51.1875 44.4486 52.7625C44.4715 52.7952 44.5042 52.8197 44.542 52.8325C44.5798 52.8453 44.6206 52.8458 44.6587 52.8338C50.0542 51.1801 55.1282 48.6184 59.6624 45.2588C59.6851 45.2431 59.704 45.2224 59.7176 45.1984C59.7313 45.1744 59.7393 45.1476 59.7411 45.12C60.9936 32.1788 57.6449 20.9363 50.8686 10.9725C50.8618 10.9561 50.8516 10.9412 50.8387 10.929C50.8258 10.9167 50.8104 10.9073 50.7937 10.9013V10.9013ZM20.0512 38.3025C17.0924 38.3025 14.6587 35.5875 14.6587 32.2575C14.6587 28.9238 17.0474 26.2088 20.0512 26.2088C23.0774 26.2088 25.4887 28.9463 25.4437 32.2575C25.4437 35.5875 23.0549 38.3025 20.0512 38.3025ZM39.9862 38.3025C37.0312 38.3025 34.5937 35.5875 34.5937 32.2575C34.5937 28.9238 36.9824 26.2088 39.9862 26.2088C43.0124 26.2088 45.4274 28.9463 45.3786 32.2575C45.3786 35.5875 43.0124 38.3025 39.9862 38.3025Z" fill="black"/>
</g>
<defs>
<clipPath id="clip0_77_6">
<rect width="60" height="60" fill="white"/>
</clipPath>
</defs>
</svg>
