<svg width="60" height="60" viewBox="0 0 60 60" fill="none" xmlns="http://www.w3.org/2000/svg">
<g clip-path="url(#clip0_77_11)">
<path d="M59.9999 30.1838C59.9999 13.5113 46.5674 -0.00366211 29.9999 -0.00366211C13.4249 8.78908e-05 -0.00756836 13.5113 -0.00756836 30.1876C-0.00756836 45.2513 10.9649 57.7388 25.3049 60.0038V38.9101H17.6924V30.1876H25.3124V23.5313C25.3124 15.9676 29.7937 11.7901 36.6449 11.7901C39.9299 11.7901 43.3612 12.3788 43.3612 12.3788V19.8038H39.5774C35.8537 19.8038 34.6912 22.1326 34.6912 24.5213V30.1838H43.0087L41.6812 38.9063H34.6874V60.0001C49.0274 57.7351 59.9999 45.2476 59.9999 30.1838Z" fill="black"/>
</g>
<defs>
<clipPath id="clip0_77_11">
<rect width="60" height="60" fill="white"/>
</clipPath>
</defs>
</svg>
