<svg width="50" height="50" viewBox="0 0 50 50" fill="none" xmlns="http://www.w3.org/2000/svg">
<path d="M22.0313 37.1407C22.0313 41.5626 20.3188 44.0345 17.2688 44.0345C14.2125 44.0313 12.5 41.5626 12.5 37.1407C12.5 32.7282 14.2125 30.2563 17.2688 30.2563C20.3188 30.2563 22.0313 32.7251 22.0313 37.1407ZM17.2688 32.1032C15.575 32.1032 14.6687 33.8626 14.6687 37.1407C14.6687 37.4157 14.6781 37.6813 14.6875 37.9282L19.5594 34.3563C19.1656 32.8751 18.3875 32.1063 17.2688 32.1063V32.1032ZM14.9813 39.9407C15.375 41.4157 16.1438 42.1845 17.2688 42.1845C18.9563 42.1845 19.8625 40.4251 19.8625 37.1407C19.8625 36.8751 19.8531 36.6095 19.8438 36.3595L14.9813 39.9407ZM33.9219 41.8907V43.7501H24.5469V41.8907H28.2375V32.8126H28.0813L24.5313 35.147V32.997L28.25 30.5407H30.4062V41.8938H33.9219V41.8907Z" fill="black"/>
<path d="M43.75 43.75V14.0625L29.6875 0H12.5C10.8424 0 9.25268 0.65848 8.08058 1.83058C6.90848 3.00269 6.25 4.5924 6.25 6.25V43.75C6.25 45.4076 6.90848 46.9973 8.08058 48.1694C9.25268 49.3415 10.8424 50 12.5 50H37.5C39.1576 50 40.7473 49.3415 41.9194 48.1694C43.0915 46.9973 43.75 45.4076 43.75 43.75ZM29.6875 9.375C29.6875 10.6182 30.1814 11.8105 31.0604 12.6896C31.9395 13.5686 33.1318 14.0625 34.375 14.0625H40.625V43.75C40.625 44.5788 40.2958 45.3737 39.7097 45.9597C39.1237 46.5458 38.3288 46.875 37.5 46.875H12.5C11.6712 46.875 10.8763 46.5458 10.2903 45.9597C9.70424 45.3737 9.375 44.5788 9.375 43.75V6.25C9.375 5.4212 9.70424 4.62634 10.2903 4.04029C10.8763 3.45424 11.6712 3.125 12.5 3.125H29.6875V9.375Z" fill="black"/>
</svg>
