<svg width="50" height="50" viewBox="0 0 50 50" fill="none" xmlns="http://www.w3.org/2000/svg">
<g clip-path="url(#clip0_36_14)">
<path d="M25.6594 6.39692C25.4528 6.30079 25.2278 6.25098 25 6.25098C24.7722 6.25098 24.5471 6.30079 24.3406 6.39692L0.903098 17.3344C0.627105 17.4632 0.39478 17.6699 0.234695 17.929C0.0746097 18.1881 -0.00625516 18.4884 0.00204538 18.7929C0.0103459 19.0973 0.10745 19.3927 0.281415 19.6427C0.45538 19.8927 0.698621 20.0865 0.981223 20.2L24.4187 29.575C24.7918 29.7246 25.2081 29.7246 25.5812 29.575L43.75 22.3125V40.625C42.9212 40.625 42.1263 40.9543 41.5403 41.5403C40.9542 42.1264 40.625 42.9212 40.625 43.75V50H50V43.75C50 42.9212 49.6707 42.1264 49.0847 41.5403C48.4986 40.9543 47.7038 40.625 46.875 40.625V21.0594L49.0187 20.2C49.3013 20.0865 49.5446 19.8927 49.7185 19.6427C49.8925 19.3927 49.9896 19.0973 49.9979 18.7929C50.0062 18.4884 49.9253 18.1881 49.7653 17.929C49.6052 17.6699 49.3728 17.4632 49.0969 17.3344L25.6594 6.39692ZM25 26.4375L5.49372 18.6407L25 9.53755L44.5062 18.6407L25 26.4375Z" fill="black"/>
<path d="M13.05 28.2249C12.8488 28.1491 12.6341 28.1157 12.4194 28.1267C12.2047 28.1376 11.9945 28.1928 11.8021 28.2887C11.6097 28.3847 11.4391 28.5193 11.3011 28.6841C11.1631 28.849 11.0606 29.0405 11 29.2468L9.43749 34.5593C9.32805 34.9323 9.36153 35.3326 9.53142 35.6822C9.7013 36.0318 9.99538 36.3055 10.3562 36.4499L24.4187 42.0749C24.7918 42.2245 25.2082 42.2245 25.5812 42.0749L39.6437 36.4499C40.0046 36.3055 40.2987 36.0318 40.4686 35.6822C40.6384 35.3326 40.6719 34.9323 40.5625 34.5593L39 29.2468C38.9394 29.0405 38.8369 28.849 38.6989 28.6841C38.5609 28.5193 38.3903 28.3847 38.1979 28.2887C38.0055 28.1928 37.7953 28.1376 37.5806 28.1267C37.3659 28.1157 37.1512 28.1491 36.95 28.2249L25 32.7062L13.05 28.2249ZM12.8375 34.0781L13.525 31.7406L24.45 35.8374C24.8045 35.9708 25.1954 35.9708 25.55 35.8374L36.475 31.7406L37.1625 34.0781L25 38.9374L12.8375 34.0749V34.0781Z" fill="black"/>
</g>
<defs>
<clipPath id="clip0_36_14">
<rect width="50" height="50" fill="white"/>
</clipPath>
</defs>
</svg>
