<svg width="50" height="50" viewBox="0 0 50 50" fill="none" xmlns="http://www.w3.org/2000/svg">
<path d="M25.1563 30C26.2063 30 26.7313 29.25 26.8875 28.0406C27.0125 26.3719 27.5063 25.4937 29.5344 24.1031C31.6375 22.6187 32.8125 20.6969 32.8125 17.8969C32.8125 13.7563 29.9375 10.9375 25.7438 10.9375C22.5563 10.9375 20.1438 12.475 19.1813 14.9688C18.8896 15.6498 18.7427 16.3841 18.75 17.125C18.75 18.3531 19.3844 19.125 20.4531 19.125C21.3031 19.125 21.875 18.6656 22.2156 17.5313C22.7094 15.6813 23.8563 14.6719 25.5719 14.6719C27.4781 14.6719 28.7906 16.0656 28.7906 18.0594C28.7906 19.8187 28.1406 20.825 26.2219 22.2C24.2875 23.5531 23.3281 25.0563 23.3281 27.325V27.6719C23.3281 29.0094 23.9781 30 25.1563 30Z" fill="black"/>
<path d="M32.1031 7.85311L29.2249 4.90311L31.4593 2.72186L33.4031 4.71249L36.1843 4.67811C37.3882 4.66386 38.5828 4.89048 39.6979 5.34464C40.8129 5.7988 41.8259 6.47132 42.6772 7.32267C43.5286 8.17402 44.2011 9.18701 44.6553 10.3021C45.1094 11.4171 45.3361 12.6117 45.3218 13.8156L45.2906 16.5969L47.2781 18.5406C48.1389 19.3818 48.8229 20.3865 49.2899 21.4958C49.7568 22.605 49.9974 23.7964 49.9974 25C49.9974 26.2035 49.7568 27.395 49.2899 28.5042C48.8229 29.6135 48.1389 30.6182 47.2781 31.4594L45.2874 33.4031L45.3218 36.1844C45.3361 37.3883 45.1094 38.5829 44.6553 39.6979C44.2011 40.813 43.5286 41.826 42.6772 42.6773C41.8259 43.5287 40.8129 44.2012 39.6979 44.6553C38.5828 45.1095 37.3882 45.3361 36.1843 45.3219L33.4031 45.2906L31.4593 47.2781C30.6181 48.1389 29.6134 48.8229 28.5042 49.2899C27.3949 49.7569 26.2035 49.9975 24.9999 49.9975C23.7964 49.9975 22.605 49.7569 21.4957 49.2899C20.3864 48.8229 19.3817 48.1389 18.5406 47.2781L16.5968 45.2875L13.8156 45.3219C12.6116 45.3361 11.417 45.1095 10.302 44.6553C9.18695 44.2012 8.17396 43.5287 7.32261 42.6773C6.47126 41.826 5.79873 40.813 5.34458 39.6979C4.89042 38.5829 4.6638 37.3883 4.67805 36.1844L4.7093 33.4031L2.7218 31.4594C1.86099 30.6182 1.17699 29.6135 0.709998 28.5042C0.243006 27.395 0.00244141 26.2035 0.00244141 25C0.00244141 23.7964 0.243006 22.605 0.709998 21.4958C1.17699 20.3865 1.86099 19.3818 2.7218 18.5406L4.71243 16.5969L4.67805 13.8156C4.6638 12.6117 4.89042 11.4171 5.34458 10.3021C5.79873 9.18701 6.47126 8.17402 7.32261 7.32267C8.17396 6.47132 9.18695 5.7988 10.302 5.34464C11.417 4.89048 12.6116 4.66386 13.8156 4.67811L16.5968 4.70936L18.5406 2.72186C19.3817 1.86105 20.3864 1.17705 21.4957 0.71006C22.605 0.243067 23.7964 0.00250244 24.9999 0.00250244C26.2035 0.00250244 27.3949 0.243067 28.5042 0.71006C29.6134 1.17705 30.6181 1.86105 31.4593 2.72186L29.2249 4.90311C28.6748 4.33995 28.0176 3.89244 27.2921 3.58691C26.5665 3.28138 25.7872 3.12399 24.9999 3.12399C24.2127 3.12399 23.4333 3.28138 22.7078 3.58691C21.9822 3.89244 21.325 4.33995 20.7749 4.90311L17.8999 7.85311L13.7749 7.80311C12.988 7.79432 12.2072 7.94288 11.4785 8.24007C10.7498 8.53727 10.0878 8.9771 9.53146 9.53374C8.97511 10.0904 8.53563 10.7526 8.23881 11.4815C7.942 12.2103 7.79384 12.9912 7.80305 13.7781L7.85305 17.8969L4.90305 20.775C4.33988 21.3251 3.89238 21.9823 3.58685 22.7078C3.28132 23.4334 3.12393 24.2127 3.12393 25C3.12393 25.7873 3.28132 26.5666 3.58685 27.2921C3.89238 28.0177 4.33988 28.6749 4.90305 29.225L7.85305 32.1L7.80305 36.225C7.79425 37.0119 7.94282 37.7927 8.24001 38.5214C8.53721 39.2501 8.97704 39.9121 9.53368 40.4685C10.0903 41.0248 10.7525 41.4643 11.4814 41.7611C12.2103 42.0579 12.9911 42.2061 13.7781 42.1969L17.8968 42.1469L20.7749 45.0969C21.325 45.66 21.9822 46.1075 22.7078 46.4131C23.4333 46.7186 24.2127 46.876 24.9999 46.876C25.7872 46.876 26.5665 46.7186 27.2921 46.4131C28.0176 46.1075 28.6748 45.66 29.2249 45.0969L32.0999 42.1469L36.2249 42.1969C37.0119 42.2057 37.7926 42.0571 38.5214 41.7599C39.2501 41.4627 39.9121 41.0229 40.4684 40.4662C41.0247 39.9096 41.4642 39.2474 41.761 38.5185C42.0579 37.7896 42.206 37.0088 42.1968 36.2219L42.1468 32.1031L45.0968 29.225C45.66 28.6749 46.1075 28.0177 46.413 27.2921C46.7185 26.5666 46.8759 25.7873 46.8759 25C46.8759 24.2127 46.7185 23.4334 46.413 22.7078C46.1075 21.9823 45.66 21.3251 45.0968 20.775L42.1468 17.9L42.1968 13.775C42.2056 12.988 42.057 12.2073 41.7598 11.4786C41.4626 10.7498 41.0228 10.0879 40.4662 9.53152C39.9095 8.97517 39.2473 8.53569 38.5185 8.23887C37.7896 7.94206 37.0087 7.7939 36.2218 7.80311L32.1031 7.85311Z" fill="black"/>
<path d="M21.8782 34.375C21.8782 33.5462 22.2074 32.7513 22.7935 32.1653C23.3795 31.5792 24.1744 31.25 25.0032 31.25C25.832 31.25 26.6268 31.5792 27.2129 32.1653C27.7989 32.7513 28.1282 33.5462 28.1282 34.375C28.1282 35.2038 27.7989 35.9987 27.2129 36.5847C26.6268 37.1708 25.832 37.5 25.0032 37.5C24.1744 37.5 23.3795 37.1708 22.7935 36.5847C22.2074 35.9987 21.8782 35.2038 21.8782 34.375Z" fill="black"/>
</svg>
