<svg width="60" height="60" viewBox="0 0 60 60" fill="none" xmlns="http://www.w3.org/2000/svg">
<path d="M18.8475 56.2499C41.49 56.2499 53.8762 37.4887 53.8762 21.2474C53.8762 20.7224 53.8763 20.1899 53.8538 19.6649C56.2652 17.9192 58.3465 15.758 60 13.2824C57.7474 14.2756 55.3604 14.9302 52.9163 15.2249C55.4908 13.6861 57.419 11.2648 58.3425 8.41116C55.9237 9.84413 53.2763 10.8501 50.5162 11.3849C48.6607 9.40875 46.2053 8.09961 43.5303 7.66025C40.8554 7.2209 38.1102 7.67587 35.72 8.95468C33.3298 10.2335 31.428 12.2648 30.3092 14.7339C29.1903 17.203 28.9169 19.9722 29.5312 22.6124C24.6365 22.367 19.8481 21.0954 15.4764 18.8802C11.1048 16.665 7.24757 13.5556 4.155 9.75366C2.58503 12.4652 2.1059 15.6727 2.81492 18.7247C3.52394 21.7767 5.36796 24.4444 7.9725 26.1862C6.02077 26.1199 4.11195 25.5958 2.4 24.6562V24.8249C2.40337 27.6655 3.3874 30.4177 5.18578 32.6165C6.98415 34.8153 9.48655 36.3257 12.27 36.8924C11.2135 37.1835 10.1221 37.3286 9.02625 37.3237C8.25369 37.326 7.48268 37.2544 6.72375 37.1099C7.51045 39.5551 9.04227 41.693 11.1047 43.2242C13.1671 44.7554 15.6568 45.6031 18.225 45.6487C13.8621 49.0754 8.47275 50.9339 2.925 50.9249C1.94745 50.929 0.970587 50.8727 0 50.7562C5.63068 54.3459 12.1699 56.252 18.8475 56.2499V56.2499Z" fill="black"/>
</svg>
