<svg width="60" height="60" viewBox="0 0 60 60" fill="none" xmlns="http://www.w3.org/2000/svg">
<g clip-path="url(#clip0_77_13)">
<path d="M30.1912 7.49634H30.525C33.6075 7.50759 49.2262 7.62009 53.4375 8.75259C54.7106 9.09822 55.8707 9.77192 56.8018 10.7064C57.733 11.6408 58.4026 12.8033 58.7437 14.0776C59.1225 15.5026 59.3887 17.3888 59.5687 19.3351L59.6062 19.7251L59.6887 20.7001L59.7187 21.0901C59.9625 24.5176 59.9925 27.7276 59.9962 28.4288V28.7101C59.9925 29.4376 59.9587 32.8651 59.6887 36.4351L59.6587 36.8288L59.625 37.2188C59.4375 39.3638 59.16 41.4938 58.7437 43.0613C58.4036 44.3362 57.7344 45.4992 56.8031 46.4338C55.8718 47.3684 54.7111 48.0417 53.4375 48.3863C49.0875 49.5563 32.5537 49.6388 30.2625 49.6426H29.73C28.5712 49.6426 23.7787 49.6201 18.7537 49.4476L18.1162 49.4251L17.79 49.4101L17.1487 49.3838L16.5075 49.3576C12.345 49.1738 8.38125 48.8776 6.555 48.3826C5.28184 48.0383 4.12149 47.3655 3.19022 46.4316C2.25894 45.4977 1.58943 44.3355 1.24875 43.0613C0.8325 41.4976 0.555 39.3638 0.3675 37.2188L0.3375 36.8251L0.3075 36.4351C0.122428 33.8941 0.0198745 31.3477 0 28.8001L0 28.3388C0.0075 27.5326 0.0375 24.7463 0.24 21.6713L0.26625 21.2851L0.2775 21.0901L0.3075 20.7001L0.39 19.7251L0.4275 19.3351C0.6075 17.3888 0.87375 15.4988 1.2525 14.0776C1.5926 12.8028 2.26186 11.6398 3.19317 10.7051C4.12449 9.77054 5.28514 9.09718 6.55875 8.75259C8.385 8.26509 12.3487 7.96509 16.5112 7.77759L17.1487 7.75134L17.7937 7.72884L18.1162 7.71759L18.7575 7.69134C22.3264 7.57649 25.8968 7.51274 29.4675 7.50009H30.1912V7.49634ZM24 19.5338V37.6013L39.5887 28.5713L24 19.5338Z" fill="black"/>
</g>
<defs>
<clipPath id="clip0_77_13">
<rect width="60" height="60" fill="white"/>
</clipPath>
</defs>
</svg>
